<svg width="40" height="40" viewBox="0 0 40 40" fill="none" xmlns="http://www.w3.org/2000/svg">
<path d="M32 14L24 14C23.4477 14 23 13.5523 23 13L23 4L27.5 9L32 14Z" fill="#9B0000"/>
<path d="M23 4V5H10C9.44772 5 9 5.44772 9 6V34C9 34.5523 9.44772 35 10 35H30C30.5523 35 31 34.5523 31 34V14H32V34C32 35.0357 31.2128 35.887 30.2041 35.9893L30 36H10L9.7959 35.9893C8.78722 35.887 8 35.0357 8 34V6C8 4.89543 8.89543 4 10 4H23Z" fill="#FFFDFA"/>
<path d="M12 28H24" stroke="#FFFDFA"/>
<path d="M12 24H24" stroke="#FFFDFA"/>
</svg>
