<svg width="136" height="41" viewBox="0 0 136 41" fill="none" xmlns="http://www.w3.org/2000/svg">
<path d="M27.8217 4.5929C22.3079 1.54713 15.5601 0.506632 11.1064 1.79113C6.64997 3.07563 4.15951 7.12263 2.34214 10.8135C-0.0109019 15.5897 -0.32782 17.8109 0.249923 22.172C0.914608 27.1782 4.73725 31.6823 9.29189 33.9905C14.4776 36.6212 18.676 36.9942 22.5772 36.9662C29.6812 36.9129 35.3829 29.879 36.185 24.2278C37.2535 16.6778 36.1682 9.20363 27.8245 4.5929H27.8217ZM15.49 31.4019C9.10117 28.687 6.12552 21.3054 8.84035 14.9166C11.5552 8.52773 18.9368 5.55207 25.3257 8.2669C31.7145 10.9817 34.6902 18.3634 31.9753 24.7522C29.2605 31.1411 21.8788 34.1167 15.49 31.4019Z" fill="#FFFDFA"/>
</svg>
