<svg width="207" height="40" viewBox="0 0 207 40" fill="none" xmlns="http://www.w3.org/2000/svg">
<path d="M18.1537 3.43995C18.8369 1.79736 21.1638 1.79736 21.847 3.43994L25.3503 11.8629C25.6383 12.5554 26.2896 13.0285 27.0371 13.0884L36.1304 13.8174C37.9037 13.9596 38.6228 16.1726 37.2717 17.33L30.3436 23.2646C29.774 23.7525 29.5253 24.5181 29.6993 25.2476L31.8159 34.1211C32.2287 35.8516 30.3462 37.2193 28.828 36.292L21.0429 31.5368C20.4029 31.1459 19.5979 31.1459 18.9579 31.5368L11.1728 36.292C9.65456 37.2193 7.77206 35.8516 8.18483 34.1211L10.3015 25.2476C10.4755 24.5181 10.2268 23.7525 9.65718 23.2646L2.72906 17.33C1.37799 16.1726 2.09704 13.9596 3.87035 13.8174L12.9636 13.0884C13.7112 13.0285 14.3624 12.5554 14.6504 11.8629L18.1537 3.43995Z" stroke="#FFFDFA"/>
</svg>
